<?xml version="1.0" encoding="iso-8859-1"?>
<!-- Generator: Adobe Illustrator 19.0.0, SVG Export Plug-In . SVG Version: 6.00 Build 0)  -->
<svg version="1.1" id="Layer_1" xmlns="http://www.w3.org/2000/svg" xmlns:xlink="http://www.w3.org/1999/xlink" x="0px" y="0px"
	 viewBox="0 0 473.935 473.935" style="enable-background:new 0 0 473.935 473.935;" xml:space="preserve">
<circle style="fill:#4ABC96;" cx="236.967" cy="236.967" r="236.967"/>
<path style="fill:#F1EDCD;" d="M310.931,99.565c-28.898-16.056-53.204,9.381-73.975,9.381c-25.212,0-45.077-25.437-73.975-9.381
	c-29.459,16.359-59.723,42.245-10.604,112.617c0,0,4.056,139.086,32.419,167.456c0,0,15.311,2.185,15.311-34.903
	c0,0-12.535-99.135,36.849-101.878c49.373,2.739,36.842,101.878,36.842,101.878c0,37.089,15.319,34.903,15.319,34.903
	c28.363-28.37,32.411-167.456,32.411-167.456C370.647,141.81,340.383,115.924,310.931,99.565z"/>
<g>
</g>
<g>
</g>
<g>
</g>
<g>
</g>
<g>
</g>
<g>
</g>
<g>
</g>
<g>
</g>
<g>
</g>
<g>
</g>
<g>
</g>
<g>
</g>
<g>
</g>
<g>
</g>
<g>
</g>
</svg>
